<svg width="478" height="278" viewBox="0 0 478 278" fill="none" xmlns="http://www.w3.org/2000/svg">
<path d="M385.498 277.723C335.284 277.723 294.283 236.817 294.283 186.719C294.283 136.622 335.284 95.7162 385.498 95.7162C435.713 95.7162 476.714 136.622 476.714 186.719C477.174 236.817 436.174 277.723 385.498 277.723ZM385.498 108.585C342.194 108.585 307.182 143.516 307.182 186.719C307.182 229.923 342.194 264.853 385.498 264.853C428.803 264.853 463.814 229.923 463.814 186.719C464.275 143.516 428.803 108.585 385.498 108.585Z" fill="#836B5D"/>
<path d="M153.314 50.2147H52.4243V63.0838H153.314V50.2147Z" fill="#836B5D"/>
<path d="M75.4578 82.3875H0.827148V95.2566H75.4578V82.3875Z" fill="#836B5D"/>
<path d="M385.497 95.7162C375.362 95.7162 365.687 97.5547 356.474 100.312L320.08 12.9861H379.047V0.116943H310.405C308.102 0.116943 306.259 1.03617 304.877 2.87462C303.956 4.71306 303.495 7.01112 304.417 9.30918L322.383 52.5127L190.167 50.6743L178.65 20.3399C177.729 18.0418 175.425 16.2034 172.661 16.2034H135.807V29.0725H168.055L178.19 55.73L156.537 102.61C145.942 98.4739 134.885 96.1758 122.908 96.1758C101.716 96.1758 82.3675 103.53 66.7043 115.48H31.6924V128.349H103.098V115.02H91.5812C101.256 110.883 111.851 108.585 122.908 108.585C133.043 108.585 142.256 110.424 151.009 114.101L125.211 170.173C124.29 170.173 123.829 170.173 122.908 170.173C113.233 170.173 104.941 177.987 104.941 188.098C104.941 197.75 112.773 206.023 122.908 206.023C129.357 206.023 134.885 202.806 138.11 197.29L200.302 197.75C194.774 235.898 162.066 264.853 122.908 264.853C79.6034 264.853 44.5915 229.923 44.5915 186.719C44.5915 168.335 51.0411 151.329 61.6368 138.001H53.3445H45.9736C36.7599 152.249 31.6924 168.795 31.6924 186.719C31.6924 236.817 72.6932 277.723 122.908 277.723C169.437 277.723 208.134 242.792 213.662 197.75L270.326 198.669C272.63 198.669 274.933 197.29 276.315 194.992L332.058 74.5741L344.957 105.368C315.012 120.535 294.742 151.329 294.742 186.719C294.742 236.817 335.743 277.723 385.958 277.723C436.172 277.723 477.173 236.817 477.173 186.719C477.173 136.622 436.172 95.7162 385.497 95.7162ZM140.414 183.962C139.953 181.204 138.571 178.446 136.728 176.148L162.526 119.616C185.1 132.945 200.302 157.304 200.763 184.881L140.414 183.962ZM214.123 184.881C213.662 151.789 195.235 123.293 168.055 107.666L184.639 72.276L227.483 185.341L214.123 184.881ZM265.719 185.8L241.303 185.341L195.235 63.0838L321.923 64.9222L265.719 185.8ZM385.497 264.853C342.193 264.853 307.181 229.923 307.181 186.719C307.181 156.385 324.226 130.187 349.564 117.318L373.058 173.85C369.834 177.068 367.53 181.664 367.53 186.719C367.53 196.371 375.362 204.644 385.497 204.644C395.632 204.644 403.463 196.831 403.463 186.719C403.463 177.068 395.632 168.795 385.497 168.795H385.036L361.541 112.262C368.912 109.964 377.205 108.585 385.497 108.585C428.801 108.585 463.813 143.516 463.813 186.719C464.274 229.923 428.801 264.853 385.497 264.853Z" fill="#836B5D"/>
</svg>
