<svg width="60" height="32" viewBox="0 0 60 32" fill="none" xmlns="http://www.w3.org/2000/svg">
<path d="M23.3253 21.694C22.5122 27.1353 19.5309 30.552 15.601 30.6152C14.7201 30.9948 13.7715 31.2479 12.8229 31.2479C9.0285 31.2479 5.23409 28.2109 2.32053 22.9595C-1.6094 15.8731 0.626592 5.0538 0.69435 4.61091C0.762107 4.23128 1.23641 3.9782 1.64295 4.16801C1.91398 4.29455 5.84391 5.9396 9.84159 8.78678C11.2645 5.9396 13.0939 3.21895 14.8556 1.13101C14.9912 1.00447 15.1944 0.87793 15.3977 0.87793C15.601 0.87793 15.8042 1.00447 15.9398 1.13101C17.0916 2.4597 18.7178 4.73745 20.073 7.14174C24.6127 4.35783 30.101 3.21895 30.7786 3.09241H30.8464C30.9141 3.09241 31.6595 3.02914 31.6595 3.66185C31.6595 4.04147 31.5239 13.279 26.9842 18.4672C25.7646 19.7959 24.5449 20.8715 23.3253 21.694Z" fill="#E9D4C6"/>
<path d="M23.3253 21.694C22.5122 27.1353 19.5309 30.552 15.601 30.6152C14.7201 30.9948 13.7715 31.2479 12.8229 31.2479C9.0285 31.2479 5.23409 28.2109 2.32053 22.9595C-1.6094 15.8731 0.626592 5.0538 0.69435 4.61091C0.762107 4.23128 1.23641 3.9782 1.64295 4.16801C1.91398 4.29455 5.84391 5.9396 9.84159 8.78678C11.2645 5.9396 13.0939 3.21895 14.8556 1.13101C14.9912 1.00447 15.1944 0.87793 15.3977 0.87793C15.601 0.87793 15.8042 1.00447 15.9398 1.13101C17.0916 2.4597 18.7178 4.73745 20.073 7.14174C24.6127 4.35783 30.101 3.21895 30.7786 3.09241H30.8464C30.9141 3.09241 31.6595 3.02914 31.6595 3.66185C31.6595 4.04147 31.5239 13.279 26.9842 18.4672C25.7646 19.7959 24.5449 20.8715 23.3253 21.694ZM25.9001 17.6447C28.3393 14.8608 29.4235 10.6849 29.8978 7.64791C28.5426 10.3686 26.3744 14.1648 23.5286 17.2651C23.5963 18.0876 23.5963 19.0367 23.5286 19.9225C24.3417 19.2897 25.087 18.5305 25.9001 17.6447ZM23.3253 15.4935C26.2389 11.9503 28.4071 7.64791 29.4912 5.30689C27.594 6.50903 24.6805 8.5337 21.9702 11.0013C22.58 12.3932 23.0543 14.0383 23.3253 15.4935ZM17.9047 22.39C18.7178 16.5691 17.2949 9.35622 15.4655 3.66185V3.59858C13.1617 10.7482 10.7902 22.9595 15.4655 28.9702C15.4655 28.9069 17.2949 26.8822 17.9047 22.39ZM3.4724 22.39C6.04718 27.0721 9.29953 29.7927 12.4841 29.9825C10.5869 29.0335 9.29953 27.2619 8.48645 25.3005C8.28317 24.731 4.21773 20.3653 1.50744 8.72351C1.16865 12.5198 1.16865 18.2141 3.4724 22.39ZM8.14766 12.8994C5.97942 10.1787 3.81119 7.96426 2.38828 6.57231C3.06586 9.67258 4.55652 15.8731 7.40233 21.1246C6.99578 17.8978 7.26681 15.4935 8.14766 12.8994ZM4.75979 7.14174C5.91167 8.34389 7.26681 9.79912 8.62196 11.4442C8.82523 10.938 9.0285 10.4318 9.23178 9.98893C7.74111 8.78678 6.11494 7.83772 4.75979 7.14174ZM8.62196 18.0876C8.62196 22.2002 9.70608 27.8946 13.907 29.16C9.63832 22.9595 11.5355 12.0769 13.636 4.99053C11.1967 8.5337 8.62196 13.8485 8.62196 18.0876ZM16.9561 29.16C22.2412 27.6415 23.2575 18.4672 21.1571 12.583C20.2085 9.98893 18.7856 7.39483 17.2949 5.11708C19.3276 12.2034 21.1571 22.9595 16.9561 29.16ZM21.4281 9.73585C23.3253 8.02753 25.358 6.50903 27.052 5.37016C25.1548 6.00287 22.7832 6.95193 20.7505 8.21735C20.7505 8.34389 21.1571 9.03987 21.4281 9.73585Z" fill="black"/>
<path d="M50.259 32H25.031C19.7636 32 15.5127 28.2039 15.5127 23.5C15.5127 18.7961 19.7636 15 25.031 15H50.259C55.5264 15 59.7772 18.7961 59.7772 23.5C59.7772 28.2039 55.5264 32 50.259 32Z" fill="#6DCBBA"/>
<path d="M22.8689 21.61C22.7442 21.654 22.5206 21.7127 22.1979 21.786C21.8752 21.852 21.6222 21.896 21.4389 21.918L21.3179 21.148C21.7139 21.0673 22.1246 20.9243 22.5499 20.719C22.9826 20.5063 23.3346 20.2863 23.6059 20.059H23.6169L24.4859 20.18V26.23L25.7399 26.351V27H21.5489V26.351L22.8689 26.241V21.61ZM29.458 27.11C28.5193 27.11 27.8006 26.7983 27.302 26.175C26.8106 25.5443 26.565 24.69 26.565 23.612C26.565 22.8493 26.708 22.204 26.994 21.676C27.28 21.1407 27.6576 20.741 28.127 20.477C28.6036 20.2057 29.1316 20.07 29.711 20.07C30.657 20.07 31.3683 20.3707 31.845 20.972C32.3216 21.566 32.56 22.4093 32.56 23.502C32.56 24.2573 32.4206 24.91 32.142 25.46C31.8706 26.0027 31.5003 26.4133 31.031 26.692C30.5616 26.9707 30.0373 27.11 29.458 27.11ZM29.568 26.45C30.03 26.45 30.3673 26.2153 30.58 25.746C30.8 25.2693 30.91 24.5617 30.91 23.623C30.91 22.6257 30.8073 21.896 30.602 21.434C30.404 20.9647 30.063 20.73 29.579 20.73C28.6696 20.73 28.215 21.6503 28.215 23.491C28.215 24.4737 28.3213 25.2143 28.534 25.713C28.754 26.2043 29.0986 26.45 29.568 26.45ZM36.6875 27.11C35.7488 27.11 35.0301 26.7983 34.5315 26.175C34.0401 25.5443 33.7945 24.69 33.7945 23.612C33.7945 22.8493 33.9375 22.204 34.2235 21.676C34.5095 21.1407 34.8871 20.741 35.3565 20.477C35.8331 20.2057 36.3611 20.07 36.9405 20.07C37.8865 20.07 38.5978 20.3707 39.0745 20.972C39.5511 21.566 39.7895 22.4093 39.7895 23.502C39.7895 24.2573 39.6501 24.91 39.3715 25.46C39.1001 26.0027 38.7298 26.4133 38.2605 26.692C37.7911 26.9707 37.2668 27.11 36.6875 27.11ZM36.7975 26.45C37.2595 26.45 37.5968 26.2153 37.8095 25.746C38.0295 25.2693 38.1395 24.5617 38.1395 23.623C38.1395 22.6257 38.0368 21.896 37.8315 21.434C37.6335 20.9647 37.2925 20.73 36.8085 20.73C35.8991 20.73 35.4445 21.6503 35.4445 23.491C35.4445 24.4737 35.5508 25.2143 35.7635 25.713C35.9835 26.2043 36.3281 26.45 36.7975 26.45ZM47.481 18.739H48.504L44.973 27H43.961L47.481 18.739ZM42.993 23.535C42.5603 23.535 42.19 23.4323 41.882 23.227C41.574 23.0217 41.3393 22.743 41.178 22.391C41.0166 22.039 40.936 21.6503 40.936 21.225C40.936 20.7337 41.035 20.3083 41.233 19.949C41.431 19.5823 41.6986 19.3037 42.036 19.113C42.3806 18.9223 42.762 18.827 43.18 18.827C43.8913 18.827 44.412 19.0397 44.742 19.465C45.0793 19.8903 45.248 20.455 45.248 21.159C45.248 21.6503 45.1453 22.0757 44.94 22.435C44.742 22.7943 44.4706 23.0693 44.126 23.26C43.7813 23.4433 43.4036 23.535 42.993 23.535ZM43.081 22.875C43.389 22.875 43.6126 22.7283 43.752 22.435C43.8986 22.1343 43.972 21.7237 43.972 21.203C43.972 20.7043 43.9023 20.2973 43.763 19.982C43.631 19.6593 43.4146 19.498 43.114 19.498C42.8133 19.498 42.5896 19.6447 42.443 19.938C42.2963 20.2313 42.223 20.6383 42.223 21.159C42.223 21.6283 42.2926 22.0317 42.432 22.369C42.5713 22.7063 42.7876 22.875 43.081 22.875ZM49.296 26.846C48.8706 26.846 48.5003 26.7433 48.185 26.538C47.877 26.3253 47.6423 26.0467 47.481 25.702C47.3196 25.35 47.239 24.9613 47.239 24.536C47.239 24.0447 47.338 23.6193 47.536 23.26C47.734 22.8933 48.0053 22.6147 48.35 22.424C48.6946 22.2333 49.076 22.138 49.494 22.138C50.198 22.138 50.715 22.3507 51.045 22.776C51.3823 23.2013 51.551 23.766 51.551 24.47C51.551 24.9613 51.4483 25.3867 51.243 25.746C51.045 26.1053 50.7736 26.3803 50.429 26.571C50.0843 26.7543 49.7066 26.846 49.296 26.846ZM49.384 26.175C49.692 26.175 49.9156 26.0283 50.055 25.735C50.2016 25.4417 50.275 25.0347 50.275 24.514C50.275 24.0227 50.2053 23.6157 50.066 23.293C49.934 22.9703 49.7213 22.809 49.428 22.809C49.12 22.809 48.8926 22.9557 48.746 23.249C48.5993 23.5423 48.526 23.9493 48.526 24.47C48.526 24.9393 48.5956 25.3427 48.735 25.68C48.8743 26.01 49.0906 26.175 49.384 26.175Z" fill="black"/>
</svg>
