<svg width="272" height="48" viewBox="0 0 272 48" fill="none" xmlns="http://www.w3.org/2000/svg">
<path d="M58.2306 21L58.2086 10.792L53.1486 19.24H51.8726L46.8126 10.924V21H44.0846V5.6H46.4386L52.5546 15.808L58.5606 5.6H60.9146L60.9366 21H58.2306ZM75.0843 17.436H67.3843L65.8663 21H62.9183L69.8483 5.6H72.6643L79.6163 21H76.6243L75.0843 17.436ZM74.1383 15.192L71.2343 8.46L68.3523 15.192H74.1383ZM88.488 21.22C86.9333 21.22 85.5253 20.8827 84.264 20.208C83.0173 19.5187 82.0347 18.5727 81.316 17.37C80.612 16.1673 80.26 14.8107 80.26 13.3C80.26 11.7893 80.6193 10.4327 81.338 9.23C82.0567 8.02733 83.0393 7.08867 84.286 6.414C85.5473 5.72467 86.9553 5.38 88.51 5.38C89.7713 5.38 90.9227 5.6 91.964 6.04C93.0053 6.48 93.8853 7.118 94.604 7.954L92.756 9.692C91.6413 8.48933 90.27 7.888 88.642 7.888C87.586 7.888 86.64 8.12267 85.804 8.592C84.968 9.04667 84.3153 9.68467 83.846 10.506C83.3767 11.3273 83.142 12.2587 83.142 13.3C83.142 14.3413 83.3767 15.2727 83.846 16.094C84.3153 16.9153 84.968 17.5607 85.804 18.03C86.64 18.4847 87.586 18.712 88.642 18.712C90.27 18.712 91.6413 18.1033 92.756 16.886L94.604 18.646C93.8853 19.482 92.998 20.12 91.942 20.56C90.9007 21 89.7493 21.22 88.488 21.22ZM107.01 17.436H99.3101L97.7921 21H94.8441L101.774 5.6H104.59L111.542 21H108.55L107.01 17.436ZM106.064 15.192L103.16 8.46L100.278 15.192H106.064ZM123.577 21L120.431 16.49C120.299 16.5047 120.101 16.512 119.837 16.512H116.361V21H113.501V5.6H119.837C121.171 5.6 122.33 5.82 123.313 6.26C124.31 6.7 125.073 7.33067 125.601 8.152C126.129 8.97333 126.393 9.94867 126.393 11.078C126.393 12.2367 126.107 13.234 125.535 14.07C124.977 14.906 124.171 15.5293 123.115 15.94L126.657 21H123.577ZM123.511 11.078C123.511 10.0953 123.188 9.34 122.543 8.812C121.897 8.284 120.951 8.02 119.705 8.02H116.361V14.158H119.705C120.951 14.158 121.897 13.894 122.543 13.366C123.188 12.8233 123.511 12.0607 123.511 11.078ZM136.786 21.22C135.217 21.22 133.802 20.8827 132.54 20.208C131.279 19.5187 130.289 18.5727 129.57 17.37C128.852 16.1527 128.492 14.796 128.492 13.3C128.492 11.804 128.852 10.4547 129.57 9.252C130.289 8.03467 131.279 7.08867 132.54 6.414C133.802 5.72467 135.217 5.38 136.786 5.38C138.356 5.38 139.771 5.72467 141.032 6.414C142.294 7.08867 143.284 8.02733 144.002 9.23C144.721 10.4327 145.08 11.7893 145.08 13.3C145.08 14.8107 144.721 16.1673 144.002 17.37C143.284 18.5727 142.294 19.5187 141.032 20.208C139.771 20.8827 138.356 21.22 136.786 21.22ZM136.786 18.712C137.813 18.712 138.737 18.4847 139.558 18.03C140.38 17.5607 141.025 16.9153 141.494 16.094C141.964 15.258 142.198 14.3267 142.198 13.3C142.198 12.2733 141.964 11.3493 141.494 10.528C141.025 9.692 140.38 9.04667 139.558 8.592C138.737 8.12267 137.813 7.888 136.786 7.888C135.76 7.888 134.836 8.12267 134.014 8.592C133.193 9.04667 132.548 9.692 132.078 10.528C131.609 11.3493 131.374 12.2733 131.374 13.3C131.374 14.3267 131.609 15.258 132.078 16.094C132.548 16.9153 133.193 17.5607 134.014 18.03C134.836 18.4847 135.76 18.712 136.786 18.712ZM161.796 5.6V21H159.442L150.95 10.572V21H148.112V5.6H150.466L158.958 16.028V5.6H161.796ZM170.696 21.22C169.508 21.22 168.357 21.0513 167.242 20.714C166.142 20.3767 165.27 19.9293 164.624 19.372L165.614 17.15C166.245 17.6487 167.015 18.0593 167.924 18.382C168.848 18.69 169.772 18.844 170.696 18.844C171.84 18.844 172.691 18.6607 173.248 18.294C173.82 17.9273 174.106 17.4433 174.106 16.842C174.106 16.402 173.945 16.0427 173.622 15.764C173.314 15.4707 172.918 15.2433 172.434 15.082C171.95 14.9207 171.29 14.7373 170.454 14.532C169.281 14.2533 168.328 13.9747 167.594 13.696C166.876 13.4173 166.252 12.9847 165.724 12.398C165.211 11.7967 164.954 10.99 164.954 9.978C164.954 9.12733 165.182 8.35733 165.636 7.668C166.106 6.964 166.802 6.40667 167.726 5.996C168.665 5.58533 169.809 5.38 171.158 5.38C172.097 5.38 173.021 5.49733 173.93 5.732C174.84 5.96667 175.624 6.304 176.284 6.744L175.382 8.966C174.708 8.57 174.004 8.26933 173.27 8.064C172.537 7.85867 171.826 7.756 171.136 7.756C170.007 7.756 169.164 7.94667 168.606 8.328C168.064 8.70933 167.792 9.21533 167.792 9.846C167.792 10.286 167.946 10.6453 168.254 10.924C168.577 11.2027 168.98 11.4227 169.464 11.584C169.948 11.7453 170.608 11.9287 171.444 12.134C172.588 12.398 173.527 12.6767 174.26 12.97C174.994 13.2487 175.617 13.6813 176.13 14.268C176.658 14.8547 176.922 15.6467 176.922 16.644C176.922 17.4947 176.688 18.2647 176.218 18.954C175.764 19.6433 175.067 20.1933 174.128 20.604C173.19 21.0147 172.046 21.22 170.696 21.22ZM193.442 5.6V21H190.582V14.4H182.618V21H179.758V5.6H182.618V11.958H190.582V5.6H193.442ZM204.763 21.22C203.194 21.22 201.778 20.8827 200.517 20.208C199.256 19.5187 198.266 18.5727 197.547 17.37C196.828 16.1527 196.469 14.796 196.469 13.3C196.469 11.804 196.828 10.4547 197.547 9.252C198.266 8.03467 199.256 7.08867 200.517 6.414C201.778 5.72467 203.194 5.38 204.763 5.38C206.332 5.38 207.748 5.72467 209.009 6.414C210.27 7.08867 211.26 8.02733 211.979 9.23C212.698 10.4327 213.057 11.7893 213.057 13.3C213.057 14.8107 212.698 16.1673 211.979 17.37C211.26 18.5727 210.27 19.5187 209.009 20.208C207.748 20.8827 206.332 21.22 204.763 21.22ZM204.763 18.712C205.79 18.712 206.714 18.4847 207.535 18.03C208.356 17.5607 209.002 16.9153 209.471 16.094C209.94 15.258 210.175 14.3267 210.175 13.3C210.175 12.2733 209.94 11.3493 209.471 10.528C209.002 9.692 208.356 9.04667 207.535 8.592C206.714 8.12267 205.79 7.888 204.763 7.888C203.736 7.888 202.812 8.12267 201.991 8.592C201.17 9.04667 200.524 9.692 200.055 10.528C199.586 11.3493 199.351 12.2733 199.351 13.3C199.351 14.3267 199.586 15.258 200.055 16.094C200.524 16.9153 201.17 17.5607 201.991 18.03C202.812 18.4847 203.736 18.712 204.763 18.712ZM222.425 5.6C223.759 5.6 224.918 5.82 225.901 6.26C226.898 6.7 227.661 7.33067 228.189 8.152C228.717 8.97333 228.981 9.94867 228.981 11.078C228.981 12.1927 228.717 13.168 228.189 14.004C227.661 14.8253 226.898 15.456 225.901 15.896C224.918 16.336 223.759 16.556 222.425 16.556H218.949V21H216.089V5.6H222.425ZM222.293 14.136C223.539 14.136 224.485 13.872 225.131 13.344C225.776 12.816 226.099 12.0607 226.099 11.078C226.099 10.0953 225.776 9.34 225.131 8.812C224.485 8.284 223.539 8.02 222.293 8.02H218.949V14.136H222.293Z" fill="#292929"/>
<path d="M98.5536 44.112C97.8602 44.112 97.1829 44.0213 96.5216 43.84C95.8602 43.6587 95.3322 43.4293 94.9376 43.152L95.7056 41.632C96.0896 41.888 96.5482 42.096 97.0816 42.256C97.6256 42.4053 98.1589 42.48 98.6816 42.48C99.8762 42.48 100.474 42.1653 100.474 41.536C100.474 41.2373 100.319 41.0293 100.01 40.912C99.7109 40.7947 99.2256 40.6827 98.5536 40.576C97.8496 40.4693 97.2736 40.3467 96.8256 40.208C96.3882 40.0693 96.0042 39.8293 95.6736 39.488C95.3536 39.136 95.1936 38.6507 95.1936 38.032C95.1936 37.2213 95.5296 36.576 96.2016 36.096C96.8842 35.6053 97.8016 35.36 98.9536 35.36C99.5402 35.36 100.127 35.4293 100.714 35.568C101.3 35.696 101.78 35.872 102.154 36.096L101.386 37.616C100.66 37.1893 99.8442 36.976 98.9376 36.976C98.3509 36.976 97.9029 37.0667 97.5936 37.248C97.2949 37.4187 97.1456 37.648 97.1456 37.936C97.1456 38.256 97.3056 38.4853 97.6256 38.624C97.9562 38.752 98.4629 38.8747 99.1456 38.992C99.8282 39.0987 100.388 39.2213 100.826 39.36C101.263 39.4987 101.636 39.7333 101.946 40.064C102.266 40.3947 102.426 40.864 102.426 41.472C102.426 42.272 102.079 42.912 101.386 43.392C100.692 43.872 99.7482 44.112 98.5536 44.112ZM104.148 35.456H106.148V44H104.148V35.456ZM105.156 34.048C104.793 34.048 104.489 33.936 104.244 33.712C103.999 33.4773 103.876 33.1893 103.876 32.848C103.876 32.5067 103.999 32.224 104.244 32C104.489 31.7653 104.793 31.648 105.156 31.648C105.519 31.648 105.823 31.76 106.068 31.984C106.313 32.1973 106.436 32.4693 106.436 32.8C106.436 33.152 106.313 33.4507 106.068 33.696C105.833 33.9307 105.529 34.048 105.156 34.048ZM113.621 35.36C114.698 35.36 115.562 35.6747 116.213 36.304C116.864 36.9333 117.189 37.8667 117.189 39.104V44H115.189V39.36C115.189 38.6133 115.013 38.0533 114.661 37.68C114.309 37.296 113.808 37.104 113.157 37.104C112.421 37.104 111.84 37.328 111.413 37.776C110.986 38.2133 110.773 38.848 110.773 39.68V44H108.773V35.456H110.677V36.56C111.008 36.1653 111.424 35.8667 111.925 35.664C112.426 35.4613 112.992 35.36 113.621 35.36ZM123.724 44.112C122.839 44.112 122.044 43.9253 121.34 43.552C120.636 43.1787 120.087 42.6613 119.692 42C119.298 41.328 119.1 40.5707 119.1 39.728C119.1 38.8853 119.298 38.1333 119.692 37.472C120.087 36.8107 120.631 36.2933 121.324 35.92C122.028 35.5467 122.828 35.36 123.724 35.36C124.567 35.36 125.303 35.5307 125.932 35.872C126.572 36.2133 127.052 36.704 127.372 37.344L125.836 38.24C125.591 37.8453 125.282 37.552 124.908 37.36C124.546 37.1573 124.146 37.056 123.708 37.056C122.962 37.056 122.343 37.3013 121.852 37.792C121.362 38.272 121.116 38.9173 121.116 39.728C121.116 40.5387 121.356 41.1893 121.836 41.68C122.327 42.16 122.951 42.4 123.708 42.4C124.146 42.4 124.546 42.304 124.908 42.112C125.282 41.9093 125.591 41.6107 125.836 41.216L127.372 42.112C127.042 42.752 126.556 43.248 125.916 43.6C125.287 43.9413 124.556 44.112 123.724 44.112ZM137.008 39.776C137.008 39.9147 136.997 40.112 136.976 40.368H130.272C130.389 40.9973 130.693 41.4987 131.184 41.872C131.685 42.2347 132.304 42.416 133.04 42.416C133.979 42.416 134.752 42.1067 135.36 41.488L136.432 42.72C136.048 43.1787 135.563 43.5253 134.976 43.76C134.389 43.9947 133.728 44.112 132.992 44.112C132.053 44.112 131.227 43.9253 130.512 43.552C129.797 43.1787 129.243 42.6613 128.848 42C128.464 41.328 128.272 40.5707 128.272 39.728C128.272 38.896 128.459 38.1493 128.832 37.488C129.216 36.816 129.744 36.2933 130.416 35.92C131.088 35.5467 131.845 35.36 132.688 35.36C133.52 35.36 134.261 35.5467 134.912 35.92C135.573 36.2827 136.085 36.8 136.448 37.472C136.821 38.1333 137.008 38.9013 137.008 39.776ZM132.688 36.96C132.048 36.96 131.504 37.152 131.056 37.536C130.619 37.9093 130.352 38.4107 130.256 39.04H135.104C135.019 38.4213 134.757 37.92 134.32 37.536C133.883 37.152 133.339 36.96 132.688 36.96ZM150.855 42.24V44H142.599V42.608L147.047 38.384C147.548 37.904 147.884 37.488 148.055 37.136C148.236 36.7733 148.327 36.416 148.327 36.064C148.327 35.5413 148.151 35.1413 147.799 34.864C147.447 34.5867 146.93 34.448 146.247 34.448C145.106 34.448 144.231 34.8373 143.623 35.616L142.167 34.496C142.604 33.9093 143.191 33.456 143.927 33.136C144.674 32.8053 145.506 32.64 146.423 32.64C147.639 32.64 148.61 32.928 149.335 33.504C150.06 34.08 150.423 34.864 150.423 35.856C150.423 36.464 150.295 37.0347 150.039 37.568C149.783 38.1013 149.292 38.7093 148.567 39.392L145.575 42.24H150.855ZM156.681 44.16C155.785 44.16 154.985 43.936 154.281 43.488C153.577 43.0293 153.022 42.368 152.617 41.504C152.211 40.6293 152.009 39.5947 152.009 38.4C152.009 37.2053 152.211 36.176 152.617 35.312C153.022 34.4373 153.577 33.776 154.281 33.328C154.985 32.8693 155.785 32.64 156.681 32.64C157.577 32.64 158.377 32.8693 159.081 33.328C159.795 33.776 160.355 34.4373 160.761 35.312C161.166 36.176 161.369 37.2053 161.369 38.4C161.369 39.5947 161.166 40.6293 160.761 41.504C160.355 42.368 159.795 43.0293 159.081 43.488C158.377 43.936 157.577 44.16 156.681 44.16ZM156.681 42.352C157.481 42.352 158.11 42.0213 158.569 41.36C159.038 40.6987 159.273 39.712 159.273 38.4C159.273 37.088 159.038 36.1013 158.569 35.44C158.11 34.7787 157.481 34.448 156.681 34.448C155.891 34.448 155.262 34.7787 154.793 35.44C154.334 36.1013 154.105 37.088 154.105 38.4C154.105 39.712 154.334 40.6987 154.793 41.36C155.262 42.0213 155.891 42.352 156.681 42.352ZM166.568 32.8V44H164.488V34.544H162.12V32.8H166.568ZM173.558 37.424C174.593 37.552 175.382 37.904 175.926 38.48C176.47 39.056 176.742 39.776 176.742 40.64C176.742 41.2907 176.577 41.8827 176.246 42.416C175.915 42.9493 175.414 43.376 174.742 43.696C174.081 44.0053 173.27 44.16 172.31 44.16C171.51 44.16 170.737 44.048 169.99 43.824C169.254 43.5893 168.625 43.2693 168.102 42.864L168.998 41.248C169.403 41.5893 169.894 41.8613 170.47 42.064C171.057 42.256 171.659 42.352 172.278 42.352C173.014 42.352 173.59 42.2027 174.006 41.904C174.433 41.5947 174.646 41.1787 174.646 40.656C174.646 40.1333 174.443 39.728 174.038 39.44C173.643 39.1413 173.035 38.992 172.214 38.992H171.19V37.568L173.734 34.544H168.646V32.8H176.278V34.192L173.558 37.424Z" fill="#292929"/>
<line x1="186" y1="38.25" x2="215" y2="38.25" stroke="black" stroke-width="1.5"/>
<line x1="57" y1="38.25" x2="86" y2="38.25" stroke="black" stroke-width="1.5"/>
</svg>
