<svg width="1440" height="21" viewBox="0 0 1440 21" fill="none" xmlns="http://www.w3.org/2000/svg">
<path d="M-10 19.9682L4.97615 0L20.0632 20.0791L-10 19.9682Z" fill="white"/>
<path d="M18.1768 19.9682L33.1529 0L48.24 20.0791L18.1768 19.9682Z" fill="white"/>
<path d="M46.2437 19.9682L61.2198 0L76.3069 20.0791L46.2437 19.9682Z" fill="white"/>
<path d="M74.4214 19.9682L89.3975 0L104.485 20.0791L74.4214 19.9682Z" fill="white"/>
<path d="M102.598 19.9682L117.463 0L132.661 20.0791L102.598 19.9682Z" fill="white"/>
<path d="M130.665 19.9682L145.641 0L160.728 20.0791L130.665 19.9682Z" fill="white"/>
<path d="M158.842 19.9682L173.818 0L188.906 20.0791L158.842 19.9682Z" fill="white"/>
<path d="M186.909 19.9682L201.885 0L216.972 20.0791L186.909 19.9682Z" fill="white"/>
<path d="M215.085 19.9682L230.062 0L245.149 20.0791L215.085 19.9682Z" fill="white"/>
<path d="M243.263 19.9682L258.239 0L273.326 20.0791L243.263 19.9682Z" fill="white"/>
<path d="M271.33 19.9682L286.306 0L301.393 20.0791L271.33 19.9682Z" fill="white"/>
<path d="M299.507 19.9682L314.483 0L329.57 20.0791L299.507 19.9682Z" fill="white"/>
<path d="M327.684 19.9682L342.549 0L357.747 20.0791L327.684 19.9682Z" fill="white"/>
<path d="M355.75 19.9682L370.727 0L385.814 20.0791L355.75 19.9682Z" fill="white"/>
<path d="M383.929 19.9682L398.905 0L413.992 20.0791L383.929 19.9682Z" fill="white"/>
<path d="M411.995 19.9682L426.971 0L442.058 20.0791L411.995 19.9682Z" fill="white"/>
<path d="M440.171 19.9682L455.148 0L470.235 20.0791L440.171 19.9682Z" fill="white"/>
<path d="M468.35 19.9682L483.326 0L498.413 20.0791L468.35 19.9682Z" fill="white"/>
<path d="M496.416 19.9682L511.392 0L526.479 20.0791L496.416 19.9682Z" fill="white"/>
<path d="M524.593 19.9682L539.569 0L554.656 20.0791L524.593 19.9682Z" fill="white"/>
<path d="M552.66 19.9682L567.636 0L582.834 20.0791L552.66 19.9682Z" fill="white"/>
<path d="M580.836 19.9682L595.813 0L610.9 20.0791L580.836 19.9682Z" fill="white"/>
<path d="M609.014 19.9682L623.99 0L639.077 20.0791L609.014 19.9682Z" fill="white"/>
<path d="M637.081 19.9682L652.057 0L667.144 20.0791L637.081 19.9682Z" fill="white"/>
<path d="M665.258 19.9682L680.234 0L695.321 20.0791L665.258 19.9682Z" fill="white"/>
<path d="M693.435 19.9682L708.411 0L723.498 20.0791L693.435 19.9682Z" fill="white"/>
<path d="M721.501 19.9682L736.478 0L751.565 20.0791L721.501 19.9682Z" fill="white"/>
<path d="M749.679 19.9682L764.655 0L779.742 20.0791L749.679 19.9682Z" fill="white"/>
<path d="M777.857 19.9682L792.722 0L807.92 20.0791L777.857 19.9682Z" fill="white"/>
<path d="M805.922 19.9682L820.898 0L835.985 20.0791L805.922 19.9682Z" fill="white"/>
<path d="M834.101 19.9682L849.077 0L864.164 20.0791L834.101 19.9682Z" fill="white"/>
<path d="M862.167 19.9682L877.143 0L892.23 20.0791L862.167 19.9682Z" fill="white"/>
<path d="M890.343 19.9682L905.319 0L920.406 20.0791L890.343 19.9682Z" fill="white"/>
<path d="M918.521 19.9682L933.497 0L948.584 20.0791L918.521 19.9682Z" fill="white"/>
<path d="M946.587 19.9682L961.563 0L976.65 20.0791L946.587 19.9682Z" fill="white"/>
<path d="M974.765 19.9682L989.741 0L1004.83 20.0791L974.765 19.9682Z" fill="white"/>
<path d="M1002.83 19.9682L1017.81 0L1033.01 20.0791L1002.83 19.9682Z" fill="white"/>
<path d="M1031.01 19.9682L1045.98 0L1061.07 20.0791L1031.01 19.9682Z" fill="white"/>
<path d="M1059.19 19.9682L1074.16 0L1089.25 20.0791L1059.19 19.9682Z" fill="white"/>
<path d="M1087.25 19.9682L1102.23 0L1117.32 20.0791L1087.25 19.9682Z" fill="white"/>
<path d="M1115.43 19.9682L1130.41 0L1145.49 20.0791L1115.43 19.9682Z" fill="white"/>
<path d="M1143.61 19.9682L1158.58 0L1173.67 20.0791L1143.61 19.9682Z" fill="white"/>
<path d="M1171.67 19.9682L1186.65 0L1201.74 20.0791L1171.67 19.9682Z" fill="white"/>
<path d="M1199.85 19.9682L1214.83 0L1229.91 20.0791L1199.85 19.9682Z" fill="white"/>
<path d="M1227.92 19.9682L1242.89 0L1258.09 20.0791L1227.92 19.9682Z" fill="white"/>
<path d="M1256.09 19.9682L1271.07 0L1286.16 20.0791L1256.09 19.9682Z" fill="white"/>
<path d="M1284.27 19.9682L1299.25 0L1314.33 20.0791L1284.27 19.9682Z" fill="white"/>
<path d="M1312.34 19.9682L1327.32 0L1342.4 20.0791L1312.34 19.9682Z" fill="white"/>
<path d="M1340.52 19.9682L1355.49 0L1370.58 20.0791L1340.52 19.9682Z" fill="white"/>
<path d="M1368.69 19.9682L1383.67 0L1398.76 20.0791L1368.69 19.9682Z" fill="white"/>
<path d="M1396.76 19.9682L1411.73 0L1426.82 20.0791L1396.76 19.9682Z" fill="white"/>
<path d="M1424.94 19.9682L1439.91 0L1455 20.0791L1424.94 19.9682Z" fill="white"/>
</svg>
