<svg width="56" height="66" viewBox="0 0 56 66" fill="none" xmlns="http://www.w3.org/2000/svg">
<g id="Group">
<g id="Group_2">
<path id="Vector" d="M45.5997 16.0018C45.4364 15.7474 45.1617 15.6053 44.8917 15.4809C43.9376 15.0291 42.9472 14.6178 41.8882 14.4775C40.8348 14.3403 39.7009 14.4828 38.7851 15.0826C39.8104 13.1731 41.0265 11.3751 42.4066 9.71151C42.306 9.61912 42.1999 9.52371 42.0993 9.43132C40.8348 10.3679 39.8841 11.6785 39.0925 13.0531C38.3009 14.4277 37.6455 15.869 36.8484 17.2406C37.565 14.486 37.2613 11.5068 36.0125 9.03624C35.7016 9.14533 35.3939 9.24861 35.083 9.3577C36.0849 10.2493 36.3538 11.6296 36.5031 13.0049C36.6469 14.3773 36.7053 15.7482 36.3624 17.1038L36.0189 18.7375C36.3501 17.4959 37.2698 16.823 38.419 16.23C39.7352 15.5547 40.6356 15.4055 41.9873 15.4042C42.9282 15.4049 44.8947 16.122 45.4984 16.8345C45.7562 16.6513 45.7661 16.2504 45.5997 16.0018Z" fill="#E08CB8"/>
<path id="Vector_2" d="M36.0225 18.7317C35.998 18.8162 35.9791 18.9037 35.9657 18.9942L36.0225 18.7317Z" fill="#E08CB8"/>
</g>
<path id="Vector_3" d="M37.4912 15.717L2.49013 44.7494C2.49013 44.7494 3.38582 48.6077 6.82516 51.8722C9.5532 54.4635 14.8131 57.3802 14.8131 57.3802C14.8131 57.3802 20.1173 60.2156 23.7743 61.1008C28.3827 62.2182 32.1095 60.8769 32.1095 60.8769L37.4912 15.717Z" fill="#46A5AA"/>
<g id="Group_3">
<path id="Vector_4" d="M34.737 26.1198C35.1433 26.5216 35.6011 26.9214 36.0968 27.1988L36.4351 24.3736C35.5497 23.7034 34.6279 23.0736 33.8279 22.2994C33.1743 21.6652 32.6117 20.9301 32.1583 20.1264L30.6789 21.3522C31.8913 23.0582 33.2549 24.6583 34.737 26.1198Z" fill="#E08CB8"/>
<path id="Vector_5" d="M33.5562 45.9332C33.6488 45.9611 33.7501 45.9862 33.8546 46.0054L34.1984 43.1305C32.0472 41.2746 29.5917 39.7796 27.4958 37.8485C24.8621 35.4138 22.8497 32.2867 21.6735 28.825L18.6253 31.3483C20.9261 34.0381 22.8181 37.0695 25.0951 39.7764C27.3801 42.4952 30.1618 44.9352 33.5562 45.9332Z" fill="#E08CB8"/>
<path id="Vector_6" d="M33.1783 51.6557C33.0626 51.5777 32.9439 51.5055 32.8282 51.4275C28.9639 48.9698 25.0782 46.4855 21.7079 43.3713C18.9546 40.8264 16.5364 37.8245 14.9716 34.3768L11.4339 37.3108C15.823 45.5088 23.0483 52.0084 31.5818 55.4059C31.931 55.5433 32.3094 55.6666 32.6964 55.7344L33.1783 51.6557Z" fill="#E08CB8"/>
<path id="Vector_7" d="M28.4812 24.3461C28.3385 24.0804 28.2053 23.7972 28.0752 23.5081L25.707 25.4688C27.6022 28.5471 29.7426 31.4655 32.0964 34.1766C32.9347 35.1446 33.8275 36.1048 34.97 36.6591L35.382 33.197C32.6034 30.6985 30.254 27.6888 28.4812 24.3461Z" fill="#E08CB8"/>
<path id="Vector_8" d="M11.2934 52.4547C12.5233 54.2078 13.758 55.9785 15.1643 57.5793C16.4438 58.2384 20.6741 60.3537 23.7398 61.0975C24.4942 61.2826 25.2239 61.394 25.9133 61.4609C25.7784 61.1542 25.5708 60.8757 25.3593 60.6175C23.5662 58.4074 21.2411 56.7125 19.2804 54.6519C15.5619 50.7388 13.2404 45.5926 9.55271 41.6361C9.07263 41.1189 8.56329 40.6159 8.12827 40.0555L4.67126 42.9205C5.06282 43.5475 5.4868 44.1545 5.90285 44.7497C7.69943 47.3229 9.49916 49.8903 11.2934 52.4547Z" fill="#E08CB8"/>
</g>
<path id="Vector_9" opacity="0.34" d="M12.1585 41.3769C11.363 42.0723 10.5336 42.817 10.1587 43.8091C9.78381 44.8012 10.0391 46.1139 10.9789 46.5127C11.6289 46.7838 12.4145 46.542 12.9885 46.0947C13.5626 45.6474 13.9838 45.0191 14.3955 44.4081C17.3944 40.0222 21.0007 36.0648 25.061 32.6856C25.756 32.1086 27.9915 29.5866 25.7363 29.743C24.4227 29.8328 22.3906 32.3903 21.4007 33.2581C18.3226 35.9683 15.239 38.6755 12.1585 41.3769Z" fill="white"/>
<path id="Vector_10" opacity="0.34" d="M27.441 27.9323C27.3564 28.0744 27.2711 28.231 27.2824 28.3952C27.2969 28.7116 27.6493 28.8959 27.9523 28.8803C28.5672 28.8465 29.0462 28.3098 29.4517 27.8159C29.9916 27.1543 32.9689 24.1936 30.5991 24.5735C29.1907 24.7847 28.0824 26.807 27.441 27.9323Z" fill="white"/>
<path id="Vector_11" d="M44.1453 21.2059C44.556 19.5411 44.0066 17.6996 42.767 16.6109C41.5274 15.5221 39.6635 15.237 38.1059 15.8936C38.8851 14.753 39.9034 13.7802 41.0644 13.0732C41.6892 12.6911 42.4075 12.375 43.115 12.4744C43.0791 12.184 43.0345 11.8964 42.9986 11.606C40.3334 11.6971 37.7459 13.5986 36.7735 16.1763C36.9147 14.914 36.2306 13.6763 35.2296 12.9808C34.2262 12.2765 32.9519 12.0566 31.7159 12.1359C31.484 12.1527 31.2403 12.1779 31.0529 12.3242C30.6899 12.6081 30.7237 13.1531 30.7883 13.602C32.0016 12.931 33.5646 13.0297 34.6393 13.8406C35.714 14.6514 36.248 16.1385 35.9669 17.5126L36.3824 18.3859C37.0824 17.2323 38.492 16.623 39.7758 16.7728C41.0651 16.9256 42.192 17.7724 42.8539 18.8927C43.0735 19.268 43.2536 19.6896 43.25 20.1315C43.2434 20.5793 43.0159 21.0498 42.6149 21.2453C43.1365 21.3036 43.6445 21.2943 44.1453 21.2059Z" fill="#46A5AA"/>
</g>
</svg>
