<svg width="92" height="81" viewBox="0 0 92 81" fill="none" xmlns="http://www.w3.org/2000/svg">
<g id="Frame" clip-path="url(#clip0_414_75)">
<g id="Group">
<g id="Group_2">
<path id="Vector" d="M79.7701 58.454C75.8743 70.4366 56.4585 74.8497 36.3924 68.3258C16.2621 61.6759 3.15368 46.6886 7.01854 34.8011C7.23497 34.1354 7.5465 33.5006 7.82711 32.9609C13.0304 22.4549 31.4404 18.8715 50.4604 25.0553C69.4805 31.2391 82.2633 44.9638 80.2625 56.6162C80.1079 57.0917 79.9865 57.7883 79.7701 58.454Z" fill="#F7AD1A"/>
<path id="Vector_2" d="M80.1984 56.4903C78.7621 58.9676 75.9587 60.4747 73.2243 62.7402C70.4898 65.0058 67.18 66.4534 63.376 65.2166C61.474 64.5982 59.1345 64.6788 57.1158 65.3895C53.8988 66.5518 50.1946 65.9784 47.2728 64.2924C44.7004 62.8251 41.5002 61.995 38.338 62.0184C33.2143 61.9299 29.3747 60.1558 26.1558 56.7959C23.2555 53.75 19.8867 51.498 16.5559 50.0996C11.6392 48.0805 9.46645 45.0608 8.86304 40.4482C8.52573 37.6046 7.49649 35.272 7.73212 32.9301C12.9354 22.4242 31.3454 18.8407 50.3655 25.0245C69.4164 31.1132 82.1992 44.838 80.1984 56.4903Z" fill="#EE8034"/>
<path id="Vector_3" d="M81.7493 52.3678C80.6671 55.6963 77.4215 57.2699 74.2472 59.9182C71.5127 62.1838 68.2029 63.6314 64.3989 62.3946C62.4969 61.7762 60.1574 61.8568 58.1387 62.5675C54.8266 63.6989 51.2175 63.1564 48.2956 61.4704C45.7233 60.0031 42.5231 59.173 39.3609 59.1965C34.2372 59.1079 30.3976 57.3338 27.1787 53.974C24.2784 50.928 20.9096 48.676 17.5479 47.3728C12.5361 45.3227 10.3943 42.2079 9.79084 37.5953C9.38701 34.3094 8.10104 31.4728 8.99768 28.7149C12.3369 18.4441 31.289 15.4575 51.3551 21.9814C71.4212 28.5053 85.0885 42.097 81.7493 52.3678Z" fill="#F7ADBB"/>
<path id="Vector_4" d="M84.0441 46.279C80.1484 58.2617 60.7635 62.5796 40.6973 56.0558C20.6312 49.5319 7.52282 34.5446 11.3877 22.6571C11.7587 21.5159 12.3199 20.4365 12.9763 19.388C18.9783 9.98296 36.5704 6.97483 54.6394 12.8494C72.8035 18.7549 85.2631 31.5334 84.6508 42.7959C84.596 43.9348 84.4152 45.1378 84.0441 46.279Z" fill="#EE8034"/>
<path id="Vector_5" d="M84.4892 42.3227C78.392 51.6968 60.7999 54.705 42.6358 48.7995C24.5668 42.9249 12.1073 30.1464 12.6886 18.9789C18.8166 9.50968 36.4087 6.50155 54.4777 12.3761C72.6419 18.2816 85.1014 31.0601 84.4892 42.3227Z" fill="#F7AD1A"/>
</g>
<path id="Vector_6" d="M54.8834 20.1843C54.9471 24.5162 46.9723 28.0223 37.1696 28.095C27.3668 28.1676 19.3095 24.812 19.2148 20.5751C19.1511 16.2432 27.1259 12.7371 36.9287 12.6644C46.7624 12.4967 54.7888 15.9474 54.8834 20.1843Z" fill="#FFC928"/>
<path id="Vector_7" d="M61.3681 33.2283C60.9877 33.1046 60.7712 33.7703 61.1516 33.894C61.6581 33.9534 61.8436 33.3828 61.3681 33.2283Z" fill="#EE8034"/>
<path id="Vector_8" d="M67.6333 29.4819C66.397 29.0799 65.7477 31.077 66.984 31.479C68.2203 31.8809 68.8696 29.8838 67.6333 29.4819Z" fill="#EE8034"/>
<path id="Vector_9" d="M49.6179 35.0864C48.3816 34.6844 47.7632 36.5864 48.9995 36.9884C50.2358 37.3903 50.9493 35.5192 49.6179 35.0864Z" fill="#EE8034"/>
<path id="Vector_10" d="M32.6492 32.619L32.5541 32.5881C32.1737 32.4644 31.9573 33.1301 32.3377 33.2538L32.4328 33.2847C32.8132 33.4084 33.0296 32.7427 32.6492 32.619Z" fill="#EE8034"/>
<path id="Vector_11" d="M49.6969 28.6978C49.6969 28.6978 49.6018 28.6669 49.6969 28.6978C49.4093 28.2888 48.7792 28.6097 48.9717 28.9878C49.131 29.1447 49.1952 29.2707 49.4805 29.3635C49.956 29.5181 50.1724 28.8524 49.6969 28.6978Z" fill="#EE8034"/>
<path id="Vector_12" d="M58.5309 17.3743C58.1505 17.2506 57.9341 17.9163 58.3145 18.04C58.6949 18.1636 58.9113 17.4979 58.5309 17.3743Z" fill="#EE8034"/>
<path id="Vector_13" d="M36.7001 37.301L36.4148 37.2082C35.1785 36.8063 34.5601 38.7083 35.7964 39.1102L36.0817 39.203C37.4131 39.6358 38.0315 37.7338 36.7001 37.301Z" fill="#EE8034"/>
<path id="Vector_14" d="M18.6156 20.8008C18.2329 20.3609 17.6004 20.3656 17.1605 20.7483C16.9085 20.8767 16.7206 21.1311 16.6279 21.4164C16.4424 21.987 16.7942 22.522 17.2697 22.6765C17.7452 22.8311 18.2493 22.5744 18.499 22.1298C19.003 21.8731 18.9342 21.1147 18.6156 20.8008Z" fill="#EE8034"/>
<path id="Vector_15" d="M59.0249 45.6105C57.7886 45.2086 57.1393 47.2057 58.3756 47.6076C59.7379 47.9454 60.3563 46.0434 59.0249 45.6105Z" fill="#EE8034"/>
</g>
</g>
<defs>
<clipPath id="clip0_414_75">
<rect width="76.8" height="58.7" fill="white" transform="translate(18.1494 0.565186) rotate(18.0103)"/>
</clipPath>
</defs>
</svg>
